<svg id="visual" viewBox="0 0 1920 1080" width="1920" height="1080" xmlns="http://www.w3.org/2000/svg" xmlns:xlink="http://www.w3.org/1999/xlink" version="1.1"><rect x="0" y="0" width="1920" height="1080" fill="#fcfcfc"></rect><path d="M0 842L80 804.2C160 766.3 320 690.7 480 673.3C640 656 800 697 960 656.3C1120 615.7 1280 493.3 1440 461.3C1600 429.3 1760 487.7 1840 516.8L1920 546L1920 0L1840 0C1760 0 1600 0 1440 0C1280 0 1120 0 960 0C800 0 640 0 480 0C320 0 160 0 80 0L0 0Z" fill="#5359fd" stroke-linecap="round" stroke-linejoin="miter"></path></svg>