<svg xmlns:xlink="http://www.w3.org/1999/xlink" xmlns="http://www.w3.org/2000/svg" version="1.1" viewBox="0 0 1024 1024" height="1024px" width="1024px">
    <title>头像-女二</title>
    <defs>
        <circle r="512" cy="512" cx="512" id="path-1"></circle>
        <rect height="120" width="111" y="0" x="0" id="path-3"></rect>
        <path id="path-5" d="M328.5,18.9304986 C352.455563,18.9304986 373.312866,11.3056017 384.127085,0.0477139519 C429.582944,8.09325587 492.17011,24.0824892 571.883906,48.0136835 C611.727505,59.9752899 640.004097,95.3544963 642.889488,136.8547 L657.048723,340.505172 L0,346.502763 L16.3185755,135.954733 C19.5004696,94.9008104 47.5220192,59.9943612 86.9166864,48.0106542 C165.731555,24.0354727 227.703682,8.0319213 272.833065,-3.99680289e-14 C283.630274,11.2847989 304.51178,18.9304986 328.5,18.9304986 Z"></path>
    </defs>
    <g fill-rule="evenodd" fill="none" stroke-width="1" stroke="none" id="头像-女二">
        <rect height="1024" width="1024" y="0" x="0" fill="#FFFFFF"></rect>
        <g id="路径-7">
            <mask fill="white" id="mask-2">
                <use xlink:href="#path-1"></use>
            </mask>
            <use xlink:href="#path-1" fill="#FFDCDC" id="蒙版"></use>
            <path mask="url(#mask-2)" fill="#110D2E" id="路径-3" d="M533.91587,200.351514 C605.100778,205.947054 660.490711,266.866074 700.085669,383.108571 C759.478105,557.472317 705.157607,502.251716 744.341376,580.405613 C770.463889,632.508211 700.366708,657.953469 534.049833,656.741387"></path>
            <path mask="url(#mask-2)" fill="#110D2E" id="路径-2" d="M533.91587,200.351514 C438.595221,166.994837 367.51591,227.930574 320.677937,383.158726 C314.606506,445.031673 234.199875,572.889193 280.936301,628.5 C291.22189,640.738632 470.542893,676.07718 492.288282,652 C521.706165,619.427593 535.582027,468.878098 533.91587,200.351514 Z"></path>
            <g mask="url(#mask-2)" id="椭圆形">
                <g transform="translate(457.000000, 618.000000)">
                    <mask fill="white" id="mask-4">
                        <use xlink:href="#path-3"></use>
                    </mask>
                    <use xlink:href="#path-3" fill-rule="evenodd" fill="#FFCACA" stroke="none" id="蒙版"></use>
                    <ellipse ry="34.5" rx="69" cy="-1.5" cx="57" mask="url(#mask-4)" opacity="0.5191476" style="mix-blend-mode: multiply;" fill-rule="evenodd" fill="#FFB0B0" stroke="none" id="椭圆形"></ellipse>
                </g>
            </g>
            <g mask="url(#mask-2)" id="矩形">
                <g transform="translate(184.000000, 708.069501)">
                    <mask fill="white" id="mask-6">
                        <use xlink:href="#path-5"></use>
                    </mask>
                    <use xlink:href="#path-5" fill-rule="evenodd" fill="#FFFFFF" stroke="none" id="蒙版"></use>
                    <rect height="308" width="12" y="19" x="322" mask="url(#mask-6)" opacity="0.22492327" fill-rule="evenodd" fill="#B25857" stroke="none" id="矩形"></rect>
                </g>
            </g>
            <path mask="url(#mask-2)" fill="#CD6664" id="形状结合" d="M404.501155,719.135808 L369.59,1052.87781 L184,1054.57226 L200.318576,844.024235 C203.50047,802.970312 231.522019,768.063863 270.916686,756.080156 C322.721612,740.321296 367.249768,728.006513 404.501155,719.135808 Z M755.883906,756.083185 C795.727505,768.044791 824.004097,803.423998 826.889488,844.924202 L841.048723,1048.57467 L656.908,1050.25481 L629.373654,721.214804 C665.199357,729.895647 707.369793,741.518571 755.883906,756.083185 Z"></path>
            <line mask="url(#mask-2)" stroke-linejoin="round" stroke-linecap="round" opacity="0.129434495" stroke-width="7" stroke="#000000" id="路径-6" y2="1040.82827" x2="281.5" y1="902.837686" x1="309.040549"></line>
            <line transform="translate(737.500000, 985.746777) scale(-1, 1) translate(-737.500000, -985.746777)" mask="url(#mask-2)" stroke-linejoin="round" stroke-linecap="round" opacity="0.129434495" stroke-width="7" stroke="#000000" id="路径-6备份" y2="1054.64645" x2="723.5" y1="916.655868" x1="751.040549"></line>
        </g>
        <ellipse ry="199" rx="142" cy="437" cx="512" fill="#FFCACA" id="椭圆形"></ellipse>
        <ellipse ry="25.5" rx="36.5" cy="537.5" cx="430.5" opacity="0.216334752" style="mix-blend-mode: multiply;" fill="#FFAAAA" id="椭圆形"></ellipse>
        <ellipse ry="25.5" rx="36.5" cy="537.5" cx="617.5" opacity="0.216334752" style="mix-blend-mode: multiply;" fill="#FFAAAA" id="椭圆形备份-2"></ellipse>
        <path stroke-linejoin="round" stroke-linecap="round" stroke-width="7" stroke="#110D2E" id="路径-4" d="M557.531614,410.066685 C571.923104,402.561697 583.549215,398.809203 592.409948,398.809203 C601.27068,398.809203 612.896792,402.561697 627.288282,410.066685"></path>
        <path stroke-linejoin="round" stroke-linecap="round" stroke-width="7" stroke="#110D2E" id="路径-4备份" d="M422.531614,407.066685 C436.649805,403.314191 448.139268,401.437944 457,401.437944 C465.860732,401.437944 477.623493,403.314191 492.288282,407.066685"></path>
        <path fill="#110D2E" id="路径" d="M719.97159,518.787062 C691.817596,514.724883 668.383273,515.120821 653.232296,504.276493 C652.257939,503.579095 647.571309,503.998649 646.641269,503.272985 C644.584971,501.668557 649.226627,491.039481 647.378005,489.296678 C623.733967,467.006088 616.571075,433.386444 612.964258,388.156243 C606.646291,308.927691 571.719323,298.377009 548.578511,298.377009 C525.4377,298.377009 449.161611,305.312486 449.161611,388.156243 C449.161611,445.885117 418.835005,463.825661 384.074215,484.219946 C383.137745,484.769376 386.251074,482.948697 381.255655,485.874406 C376.260237,488.800114 375.191188,512 370,512 C364.808812,512 353.569889,507.316341 352.701675,505.641781 C347.922682,496.424339 345.195571,440.273126 344.520341,337.188142 L457,238 L530.51987,200.351514 L569,219.403155 L667.862453,361.938712 C705.614205,466.936834 722.983917,519.219617 719.97159,518.787062 Z"></path>
        <circle r="9" cy="445" cx="466" fill="#110D2E" id="椭圆形"></circle>
        <circle r="9" cy="440" cx="578" fill="#110D2E" id="椭圆形备份"></circle>
        <path stroke-linejoin="round" stroke-linecap="round" stroke-width="7" stroke="#FF9494" id="路径-5" d="M522.103395,472 L522.103395,498 C522.103395,505.731986 528.371409,512 536.103395,512 L542.936345,512 L542.936345,512"></path>
        <line stroke-linejoin="round" stroke-linecap="round" stroke-width="7" stroke="#110D2E" id="路径-8" y2="562.5" x2="540.80279" y1="562.5" x1="512"></line>
        <line opacity="0.063684" stroke-width="5" stroke="#FFFFFF" id="路径-9" y2="298.5" x2="533.5" y1="200.351514" x1="533.91587"></line>
    </g>
</svg>